{
	"asset":{
		"generator":"Khronos glTF Blender I/O v3.6.27",
		"version":"2.0"
	},
	"scene":0,
	"scenes":[
		{
			"name":"Scene",
			"nodes":[
				0,
				1,
				2,
				3,
				4,
				5
			]
		}
	],
	"nodes":[
		{
			"mesh":0,
			"name":"SM_Clothes_05.mo",
			"translation":[
				0.4842197895050049,
				1,
				0
			]
		},
		{
			"mesh":1,
			"name":"SM_Clothes_05.mo.001",
			"translation":[
				1.4842197895050049,
				1,
				0
			]
		},
		{
			"mesh":2,
			"name":"SM_Rack_05.mo",
			"translation":[
				-4,
				0,
				-2
			]
		},
		{
			"mesh":3,
			"name":"SM_Theft_Protection01.mo",
			"translation":[
				-0.5157802104949951,
				0,
				0
			]
		},
		{
			"mesh":4,
			"name":"SM_Hanger_01.mo",
			"translation":[
				-1.5157802104949951,
				0,
				0
			]
		},
		{
			"mesh":5,
			"name":"SM_Rack_04.mo",
			"translation":[
				0,
				0,
				-2
			]
		}
	],
	"materials":[
		{
			"doubleSided":true,
			"name":"Material.001",
			"normalTexture":{
				"index":0
			},
			"pbrMetallicRoughness":{
				"baseColorTexture":{
					"index":1
				},
				"metallicFactor":0,
				"roughnessFactor":0.5
			}
		},
		{
			"doubleSided":true,
			"name":"Material.002",
			"normalTexture":{
				"index":2
			},
			"pbrMetallicRoughness":{
				"baseColorTexture":{
					"index":3
				},
				"metallicFactor":0,
				"roughnessFactor":0.5
			}
		},
		{
			"doubleSided":true,
			"name":"Material.003",
			"normalTexture":{
				"index":4
			},
			"pbrMetallicRoughness":{
				"baseColorTexture":{
					"index":5
				},
				"metallicFactor":0,
				"roughnessFactor":0.5
			}
		},
		{
			"doubleSided":true,
			"name":"Material.004",
			"normalTexture":{
				"index":6
			},
			"pbrMetallicRoughness":{
				"baseColorTexture":{
					"index":7
				},
				"metallicFactor":0,
				"roughnessFactor":0.5
			}
		},
		{
			"doubleSided":true,
			"name":"Material.005",
			"normalTexture":{
				"index":8
			},
			"pbrMetallicRoughness":{
				"baseColorTexture":{
					"index":9
				},
				"metallicFactor":0,
				"roughnessFactor":0.5
			}
		},
		{
			"doubleSided":true,
			"name":"Material.006",
			"normalTexture":{
				"index":10
			},
			"pbrMetallicRoughness":{
				"baseColorTexture":{
					"index":11
				},
				"metallicFactor":0,
				"roughnessFactor":0.5
			}
		}
	],
	"meshes":[
		{
			"name":"SM_Clothes_05.md",
			"primitives":[
				{
					"attributes":{
						"POSITION":0,
						"NORMAL":1,
						"TEXCOORD_0":2,
						"TEXCOORD_1":3
					},
					"indices":4,
					"material":0
				}
			]
		},
		{
			"name":"SM_Clothes_05.md.001",
			"primitives":[
				{
					"attributes":{
						"POSITION":5,
						"NORMAL":6,
						"TEXCOORD_0":7,
						"TEXCOORD_1":8
					},
					"indices":4,
					"material":1
				}
			]
		},
		{
			"name":"SM_Rack_05.md",
			"primitives":[
				{
					"attributes":{
						"POSITION":9,
						"NORMAL":10,
						"TEXCOORD_0":11,
						"TEXCOORD_1":12
					},
					"indices":13,
					"material":2
				}
			]
		},
		{
			"name":"SM_Theft_Protection01.md",
			"primitives":[
				{
					"attributes":{
						"POSITION":14,
						"NORMAL":15,
						"TEXCOORD_0":16,
						"TEXCOORD_1":17
					},
					"indices":18,
					"material":3
				}
			]
		},
		{
			"name":"SM_Hanger_01.md",
			"primitives":[
				{
					"attributes":{
						"POSITION":19,
						"NORMAL":20,
						"TEXCOORD_0":21,
						"TEXCOORD_1":22
					},
					"indices":23,
					"material":4
				}
			]
		},
		{
			"name":"SM_Rack_04.md",
			"primitives":[
				{
					"attributes":{
						"POSITION":24,
						"NORMAL":25,
						"TEXCOORD_0":26,
						"TEXCOORD_1":27
					},
					"indices":28,
					"material":5
				}
			]
		}
	],
	"textures":[
		{
			"sampler":0,
			"source":0
		},
		{
			"sampler":0,
			"source":1
		},
		{
			"sampler":0,
			"source":0
		},
		{
			"sampler":0,
			"source":2
		},
		{
			"sampler":0,
			"source":3
		},
		{
			"sampler":0,
			"source":4
		},
		{
			"sampler":0,
			"source":5
		},
		{
			"sampler":0,
			"source":6
		},
		{
			"sampler":0,
			"source":7
		},
		{
			"sampler":0,
			"source":8
		},
		{
			"sampler":0,
			"source":3
		},
		{
			"sampler":0,
			"source":4
		}
	],
	"images":[
		{
			"mimeType":"image/png",
			"name":"Tex_Clothes_04_N",
			"uri":"Tex_Clothes_04_N.png"
		},
		{
			"mimeType":"image/png",
			"name":"Tex_Clothes_04_D",
			"uri":"Tex_Clothes_04_D.png"
		},
		{
			"mimeType":"image/png",
			"name":"RambleyFitCheck",
			"uri":"RambleyFitCheck.png"
		},
		{
			"mimeType":"image/png",
			"name":"Tex_Rack_02_N",
			"uri":"Tex_Rack_02_N.png"
		},
		{
			"mimeType":"image/png",
			"name":"Tex_Rack_02_D",
			"uri":"Tex_Rack_02_D.png"
		},
		{
			"mimeType":"image/png",
			"name":"Tex_Bench_01_N",
			"uri":"Tex_Bench_01_N.png"
		},
		{
			"mimeType":"image/png",
			"name":"Tex_Bench_01_D",
			"uri":"Tex_Bench_01_D.png"
		},
		{
			"mimeType":"image/png",
			"name":"Tex_Rack_01_N",
			"uri":"Tex_Rack_01_N.png"
		},
		{
			"mimeType":"image/png",
			"name":"Tex_Rack_01_D",
			"uri":"Tex_Rack_01_D.png"
		}
	],
	"accessors":[
		{
			"bufferView":0,
			"componentType":5126,
			"count":4614,
			"max":[
				0.3476833999156952,
				0.005412539932876825,
				0.09124311804771423
			],
			"min":[
				-0.3009803295135498,
				-0.8435051441192627,
				-0.06285092979669571
			],
			"type":"VEC3"
		},
		{
			"bufferView":1,
			"componentType":5126,
			"count":4614,
			"type":"VEC3"
		},
		{
			"bufferView":2,
			"componentType":5126,
			"count":4614,
			"type":"VEC2"
		},
		{
			"bufferView":3,
			"componentType":5126,
			"count":4614,
			"type":"VEC2"
		},
		{
			"bufferView":4,
			"componentType":5123,
			"count":24402,
			"type":"SCALAR"
		},
		{
			"bufferView":5,
			"componentType":5126,
			"count":4614,
			"max":[
				0.3476833999156952,
				0.005412539932876825,
				0.09124311804771423
			],
			"min":[
				-0.3009803295135498,
				-0.8435051441192627,
				-0.06285092979669571
			],
			"type":"VEC3"
		},
		{
			"bufferView":6,
			"componentType":5126,
			"count":4614,
			"type":"VEC3"
		},
		{
			"bufferView":7,
			"componentType":5126,
			"count":4614,
			"type":"VEC2"
		},
		{
			"bufferView":8,
			"componentType":5126,
			"count":4614,
			"type":"VEC2"
		},
		{
			"bufferView":9,
			"componentType":5126,
			"count":1090,
			"max":[
				3.7873761653900146,
				2.8414266109466553,
				0.7482879161834717
			],
			"min":[
				-9.156226496997988e-07,
				3.126388020403782e-15,
				-0.0004060986393596977
			],
			"type":"VEC3"
		},
		{
			"bufferView":10,
			"componentType":5126,
			"count":1090,
			"type":"VEC3"
		},
		{
			"bufferView":11,
			"componentType":5126,
			"count":1090,
			"type":"VEC2"
		},
		{
			"bufferView":12,
			"componentType":5126,
			"count":1090,
			"type":"VEC2"
		},
		{
			"bufferView":13,
			"componentType":5123,
			"count":3408,
			"type":"SCALAR"
		},
		{
			"bufferView":14,
			"componentType":5126,
			"count":553,
			"max":[
				0.17175914347171783,
				1.198340892791748,
				0.02884105034172535
			],
			"min":[
				-0.17175893485546112,
				6.050567691318065e-08,
				-0.02884102612733841
			],
			"type":"VEC3"
		},
		{
			"bufferView":15,
			"componentType":5126,
			"count":553,
			"type":"VEC3"
		},
		{
			"bufferView":16,
			"componentType":5126,
			"count":553,
			"type":"VEC2"
		},
		{
			"bufferView":17,
			"componentType":5126,
			"count":553,
			"type":"VEC2"
		},
		{
			"bufferView":18,
			"componentType":5123,
			"count":2160,
			"type":"SCALAR"
		},
		{
			"bufferView":19,
			"componentType":5126,
			"count":2416,
			"max":[
				0.4019317626953125,
				1.513820767402649,
				0.40414610505104065
			],
			"min":[
				-0.40193235874176025,
				-3.814697322468419e-07,
				-0.40414610505104065
			],
			"type":"VEC3"
		},
		{
			"bufferView":20,
			"componentType":5126,
			"count":2416,
			"type":"VEC3"
		},
		{
			"bufferView":21,
			"componentType":5126,
			"count":2416,
			"type":"VEC2"
		},
		{
			"bufferView":22,
			"componentType":5126,
			"count":2416,
			"type":"VEC2"
		},
		{
			"bufferView":23,
			"componentType":5123,
			"count":9348,
			"type":"SCALAR"
		},
		{
			"bufferView":24,
			"componentType":5126,
			"count":1658,
			"max":[
				3.7873735427856445,
				2.8414266109466553,
				0.762520432472229
			],
			"min":[
				-3.6612266285374062e-06,
				4.2632565839671906e-15,
				-0.0004044373345095664
			],
			"type":"VEC3"
		},
		{
			"bufferView":25,
			"componentType":5126,
			"count":1658,
			"type":"VEC3"
		},
		{
			"bufferView":26,
			"componentType":5126,
			"count":1658,
			"type":"VEC2"
		},
		{
			"bufferView":27,
			"componentType":5126,
			"count":1658,
			"type":"VEC2"
		},
		{
			"bufferView":28,
			"componentType":5123,
			"count":6108,
			"type":"SCALAR"
		}
	],
	"bufferViews":[
		{
			"buffer":0,
			"byteLength":55368,
			"byteOffset":0,
			"target":34962
		},
		{
			"buffer":0,
			"byteLength":55368,
			"byteOffset":55368,
			"target":34962
		},
		{
			"buffer":0,
			"byteLength":36912,
			"byteOffset":110736,
			"target":34962
		},
		{
			"buffer":0,
			"byteLength":36912,
			"byteOffset":147648,
			"target":34962
		},
		{
			"buffer":0,
			"byteLength":48804,
			"byteOffset":184560,
			"target":34963
		},
		{
			"buffer":0,
			"byteLength":55368,
			"byteOffset":233364,
			"target":34962
		},
		{
			"buffer":0,
			"byteLength":55368,
			"byteOffset":288732,
			"target":34962
		},
		{
			"buffer":0,
			"byteLength":36912,
			"byteOffset":344100,
			"target":34962
		},
		{
			"buffer":0,
			"byteLength":36912,
			"byteOffset":381012,
			"target":34962
		},
		{
			"buffer":0,
			"byteLength":13080,
			"byteOffset":417924,
			"target":34962
		},
		{
			"buffer":0,
			"byteLength":13080,
			"byteOffset":431004,
			"target":34962
		},
		{
			"buffer":0,
			"byteLength":8720,
			"byteOffset":444084,
			"target":34962
		},
		{
			"buffer":0,
			"byteLength":8720,
			"byteOffset":452804,
			"target":34962
		},
		{
			"buffer":0,
			"byteLength":6816,
			"byteOffset":461524,
			"target":34963
		},
		{
			"buffer":0,
			"byteLength":6636,
			"byteOffset":468340,
			"target":34962
		},
		{
			"buffer":0,
			"byteLength":6636,
			"byteOffset":474976,
			"target":34962
		},
		{
			"buffer":0,
			"byteLength":4424,
			"byteOffset":481612,
			"target":34962
		},
		{
			"buffer":0,
			"byteLength":4424,
			"byteOffset":486036,
			"target":34962
		},
		{
			"buffer":0,
			"byteLength":4320,
			"byteOffset":490460,
			"target":34963
		},
		{
			"buffer":0,
			"byteLength":28992,
			"byteOffset":494780,
			"target":34962
		},
		{
			"buffer":0,
			"byteLength":28992,
			"byteOffset":523772,
			"target":34962
		},
		{
			"buffer":0,
			"byteLength":19328,
			"byteOffset":552764,
			"target":34962
		},
		{
			"buffer":0,
			"byteLength":19328,
			"byteOffset":572092,
			"target":34962
		},
		{
			"buffer":0,
			"byteLength":18696,
			"byteOffset":591420,
			"target":34963
		},
		{
			"buffer":0,
			"byteLength":19896,
			"byteOffset":610116,
			"target":34962
		},
		{
			"buffer":0,
			"byteLength":19896,
			"byteOffset":630012,
			"target":34962
		},
		{
			"buffer":0,
			"byteLength":13264,
			"byteOffset":649908,
			"target":34962
		},
		{
			"buffer":0,
			"byteLength":13264,
			"byteOffset":663172,
			"target":34962
		},
		{
			"buffer":0,
			"byteLength":12216,
			"byteOffset":676436,
			"target":34963
		}
	],
	"samplers":[
		{
			"magFilter":9729,
			"minFilter":9987
		}
	],
	"buffers":[
		{
			"byteLength":688652,
			"uri":"store%20assets.bin"
		}
	]
}
